IKResults
version=1
nRows=11
nColumns=40
inDegrees=yes

Units are S.I. units (second, meters, Newtons, ...)
Angles are in degrees.

endheader
time	pelvis_tilt	pelvis_list	pelvis_rotation	pelvis_tx	pelvis_ty	pelvis_tz	hip_flexion_r	hip_adduction_r	hip_rotation_r	knee_angle_r	knee_angle_r_beta	ankle_angle_r	subtalar_angle_r	mtp_angle_r	hip_flexion_l	hip_adduction_l	hip_rotation_l	knee_angle_l	knee_angle_l_beta	ankle_angle_l	subtalar_angle_l	mtp_angle_l	lumbar_extension	lumbar_bending	lumbar_rotation	arm_flex_r	arm_add_r	arm_rot_r	elbow_flex_r	pro_sup_r	wrist_flex_r	wrist_dev_r	arm_flex_l	arm_add_l	arm_rot_l	elbow_flex_l	pro_sup_l	wrist_flex_l	wrist_dev_l
      0.56000000	     16.88179243	     -1.40928431	      2.22399588	     -0.56218459	      0.95167753	      1.01533192	    -16.87047378	      5.24591031	     -7.21380056	    -15.64275491	     -0.27301758	      8.81151325	     -5.62307558	      1.57908917	     -1.91664767	      2.66582858	      3.48825048	    -57.72013466	     -1.00740639	      9.40127631	     19.09674552	     17.66562852	    -21.87587876	      0.43576545	      2.37845887	      2.73097576	    -10.15993137	     -5.47472242	     27.60919867	     89.95437384	      0.00000000	      0.00000000	      0.66157998	      8.29920983	      7.21701425	     16.95451099	     89.95437384	      0.00000000	      0.00000000
      0.57000000	     16.94064328	     -1.05519632	      1.93019143	     -0.55230748	      0.95153182	      1.01616658	    -17.75839496	      4.89798928	     -6.85920878	    -15.40667699	     -0.26889724	      9.17578355	     -5.83936356	      1.60884211	     -1.02331944	      2.34765502	      4.22632134	    -56.31144033	     -0.98282004	     10.52777982	     19.11422118	     18.67410851	    -21.95946432	     -0.05920236	      2.70693319	      3.37358570	    -10.35154374	     -5.44393244	     28.36810856	     89.95437384	      0.00000000	      0.00000000	     -0.22950612	      8.43090586	      6.20305725	     16.53392909	     89.95437384	      0.00000000	      0.00000000
      0.58000000	     16.74628854	     -0.86378271	      1.81178597	     -0.54307915	      0.95081259	      1.01695055	    -18.23438314	      4.75742530	     -6.66280772	    -15.33034111	     -0.26756493	      9.61210198	     -5.85500993	      1.54897679	      0.27597709	      2.24547137	      4.81090097	    -54.92103232	     -0.95855284	     11.36183634	     19.11411196	     18.94093775	    -21.84771389	     -0.35054811	      2.89606033	      4.09128253	    -10.51057011	     -5.58214030	     29.11503703	     89.95437384	      0.00000000	      0.00000000	     -1.05811744	      8.54568932	      5.29253185	     16.14997790	     89.95437384	      0.00000000	      0.00000000
      0.59000000	     16.86231078	     -0.60398103	      1.40903340	     -0.53332715	      0.95052567	      1.01789760	    -19.14500367	      4.43172078	     -6.34959867	    -15.12704983	     -0.26401683	      9.84824546	     -6.00857277	      1.58273705	      0.93685006	      2.06584374	      5.73917130	    -53.01609568	     -0.92530543	     11.81737660	     19.10444227	     19.64124102	    -22.01770484	     -0.78487856	      3.38461485	      4.63238694	    -10.72423878	     -5.74223525	     30.05500516	     89.95437384	      0.00000000	      0.00000000	     -2.04289917	      8.68128912	      4.07284266	     16.17692876	     89.95437384	      0.00000000	      0.00000000
      0.60000000	     16.72908947	     -0.31478747	      1.15146798	     -0.52395549	      0.94972221	      1.01839530	    -19.69245382	      4.08890108	     -6.13371306	    -15.07760686	     -0.26315388	     10.38796508	     -6.04087931	      1.53108276	      1.90337579	      1.73470655	      6.30836961	    -51.05869910	     -0.89114241	     12.32673956	     19.05268587	     19.63592085	    -21.96047612	     -1.18304783	      3.67144297	      5.20219713	    -10.98199094	     -5.68431308	     30.98280065	     89.95437384	      0.00000000	      0.00000000	     -2.99539627	      8.76851351	      2.98862245	     16.12803106	     89.95437384	      0.00000000	      0.00000000
      0.61000000	     16.76469397	     -0.08007471	      0.99524749	     -0.51427500	      0.94905494	      1.01885803	    -20.47845226	      3.84319563	     -6.01987378	    -14.93672360	     -0.26069501	     10.62511600	     -6.08340059	      1.53084991	      2.57743735	      1.49804615	      6.91102486	    -48.80831338	     -0.85186577	     12.45059007	     18.98631150	     19.54579374	    -22.04881029	     -1.50885374	      3.88826946	      5.70648070	    -11.20246189	     -5.71027315	     31.92578253	     89.95437384	      0.00000000	      0.00000000	     -3.99529894	      8.89934357	      1.94265002	     16.20588480	     89.95437384	      0.00000000	      0.00000000
      0.62000000	     16.61796654	      0.11103558	      0.77690646	     -0.50476320	      0.94798551	      1.01920957	    -21.00002422	      3.59074373	     -5.91665577	    -14.90471386	     -0.26013633	     11.01461156	     -5.97368991	      1.48226059	      3.38434310	      1.26882267	      7.51879358	    -46.40896111	     -0.80998917	     12.44733696	     18.84414392	     18.99795424	    -21.96775995	     -1.79177302	      4.13731203	      6.19862046	    -11.46088552	     -5.65690936	     32.89744536	     89.95437384	      0.00000000	      0.00000000	     -4.86635568	      8.85241904	      1.85183384	     16.17635087	     89.95437384	      0.00000000	      0.00000000
      0.63000000	     16.40564385	      0.30388633	      0.67651497	     -0.49530424	      0.94672746	      1.01931719	    -21.41112976	      3.35461566	     -5.93873973	    -14.95480570	     -0.26101060	     11.42182394	     -5.77979698	      1.39139057	      4.19020970	      0.95135112	      7.85330451	    -43.80126779	     -0.76447634	     12.33263780	     18.61850788	     18.14373512	    -21.82351934	     -2.03452169	      4.28782196	      6.63829423	    -11.70751520	     -5.66407003	     33.88612884	     89.95437384	      0.00000000	      0.00000000	     -5.72961465	      8.82728202	      1.63302893	     16.13510852	     89.95437384	      0.00000000	      0.00000000
      0.64000000	     16.27798393	      0.48677086	      0.46915598	     -0.48553776	      0.94550005	      1.01949467	    -21.93117501	      3.02867106	     -6.20424307	    -14.98128658	     -0.26147278	     11.80643336	     -5.11083387	      1.08476650	      4.69993845	      0.73123290	      8.65743320	    -40.78379932	     -0.71181158	     12.11385695	     18.34647369	     16.22570463	    -21.72778797	     -2.29322850	      4.53596690	      7.01035831	    -11.95822744	     -5.67509092	     34.89943991	     89.95437384	      0.00000000	      0.00000000	     -6.59080956	      8.75665645	      1.67006191	     16.08365422	     89.95437384	      0.00000000	      0.00000000
      0.65000000	     16.08782772	      0.79079977	      0.34606584	     -0.47595827	      0.94416215	      1.01930543	    -22.34388830	      2.57896814	     -6.63140255	    -15.10649903	     -0.26365815	     12.28556481	     -4.38380832	      0.67391267	      5.21372528	      0.23225880	      8.83892343	    -37.75650184	     -0.65897527	     11.63081017	     17.84651212	     13.83981814	    -21.58541894	     -2.63219265	      4.65749739	      7.35142294	    -12.18428353	     -5.75549941	     35.92152946	     89.95437384	      0.00000000	      0.00000000	     -7.38485490	      8.68738433	      1.58884534	     15.98185091	     89.95437384	      0.00000000	      0.00000000
      0.66000000	     15.88970889	      0.93174524	      0.16626002	     -0.46627731	      0.94276747	      1.01935027	    -22.78441439	      2.34318589	     -6.56122997	    -15.14649396	     -0.26435619	     12.61988054	     -4.24236874	      0.46045497	      5.63717238	     -0.00069951	      9.44644402	    -34.53160415	     -0.60269019	     11.35153668	     17.03964339	     12.24336697	    -21.43241749	     -2.83576900	      4.89098886	      7.61753489	    -12.39857590	     -5.82686857	     37.00281424	     89.95437384	      0.00000000	      0.00000000	     -8.09651373	      8.54850359	      1.95643516	     15.82192206	     89.95437384	      0.00000000	      0.00000000
